<svg viewBox="0 0 24 24" fill="none" xmlns="http://www.w3.org/2000/svg">
<path d="M15.899 13.2289L15.894 13.2269C15.831 13.1999 15.77 13.1689 15.706 13.1439C16.4202 12.5839 16.9978 11.8689 17.3953 11.053C17.7927 10.2371 17.9995 9.34148 18 8.43391C17.9983 8.22317 17.9833 8.01275 17.955 7.80391C17.9703 7.76409 17.983 7.72334 17.993 7.68191L18.274 5.28491C18.3617 4.52743 18.1582 3.76495 17.7048 3.15186C17.2514 2.53878 16.582 2.12092 15.832 1.98291L15.042 1.83991C13.031 1.47198 10.97 1.47198 8.95902 1.83991L8.16802 1.98291C7.41809 2.12092 6.74863 2.53878 6.29522 3.15186C5.84181 3.76495 5.63834 4.52743 5.72602 5.28491L6.00602 7.68191C6.0164 7.72337 6.02943 7.76412 6.04502 7.80391C6.01676 8.01275 6.00173 8.22317 6.00002 8.43391C6.0006 9.34148 6.20739 10.2371 6.6048 11.053C7.0022 11.8689 7.57982 12.5839 8.29402 13.1439C8.23002 13.1689 8.16902 13.1999 8.10602 13.2269L8.10102 13.2289C6.46408 13.9172 5.04116 15.0311 3.97995 16.4549C2.91874 17.8787 2.2579 19.5605 2.06602 21.3259C2.04113 21.5875 2.12023 21.8485 2.28622 22.0522C2.45221 22.256 2.69175 22.3862 2.95302 22.4147C3.21428 22.4433 3.47627 22.3678 3.68232 22.2046C3.88836 22.0415 4.02189 21.8038 4.05402 21.5429C4.19492 20.2451 4.65326 19.0019 5.38856 17.9232C6.12386 16.8445 7.11348 15.9634 8.27002 15.3579L11.293 18.3809C11.4806 18.5684 11.7349 18.6737 12 18.6737C12.2652 18.6737 12.5195 18.5684 12.707 18.3809L15.73 15.3579C16.8866 15.9634 17.8762 16.8445 18.6115 17.9232C19.3468 19.0019 19.8051 20.2451 19.946 21.5429C19.9726 21.7876 20.0885 22.0139 20.2715 22.1785C20.4546 22.3431 20.6919 22.4344 20.938 22.4349C20.9748 22.4349 21.0115 22.4329 21.048 22.4289C21.1786 22.4147 21.3052 22.3749 21.4204 22.3118C21.5356 22.2487 21.6373 22.1634 21.7196 22.061C21.8019 21.9586 21.8632 21.8409 21.9 21.7148C21.9367 21.5887 21.9483 21.4565 21.934 21.3259C21.7421 19.5604 21.0811 17.8785 20.0197 16.4547C18.9583 15.0309 17.5352 13.9171 15.898 13.2289H15.899ZM7.71202 5.05091C7.68249 4.79844 7.75021 4.5442 7.90141 4.33987C8.05261 4.13554 8.27595 3.99647 8.52602 3.95091L9.31602 3.80791C11.0906 3.48293 12.9094 3.48293 14.684 3.80791L15.474 3.95091C15.7241 3.99647 15.9474 4.13554 16.0986 4.33987C16.2498 4.5442 16.3176 4.79844 16.288 5.05091L16.11 6.56491H7.89002L7.71202 5.05091ZM12 16.2609L10.35 14.6099C11.4376 14.3761 12.5624 14.3761 13.65 14.6099L12 16.2609ZM12 12.4349C10.962 12.4337 9.96504 12.0295 9.21923 11.3076C8.47341 10.5856 8.03701 9.60232 8.00202 8.56491H15.998C15.963 9.60232 15.5266 10.5856 14.7808 11.3076C14.035 12.0295 13.038 12.4337 12 12.4349Z" fill="black"/>
</svg>
